# xmcd
#
# Track frame offsets: 
#        150
#        2613
#        20594
#        41072
#        57073
#        78252
#        111125
#        129945
#        163101
#        182729
#        199649
#        214778
#        246209
#        262233
#        276031
#
# Disc length: 3867 seconds
#
# Revision: 0
# Processed by: cddbd v1.5.2PL0 Copyright (c) Steve Scherf et al.
# Submitted via: ExactAudioCopy v0.99pb5
#
DISCID=cb0f190f
DTITLE=Various Artist - Tomahawk, I.C.E Experience 06
DYEAR=2008
DGENRE=Spinning
TTITLE0=Tomahawk - Intro Theme [0]
TTITLE1=Robbie Williams and Kylie Minogue - Kids [92]
TTITLE2=U2 - I Still Haven't Found What I'm Looking For [100]
TTITLE3=Pink - U and Ur Hand [141]
TTITLE4=Sunblock - I'll Be Ready (Extended Mix) [128]
TTITLE5=Carlos - The Silmarillia 2007 (Original Extended Mix) [138]
TTITLE6=Enigma - Return To The Innocence [88]
TTITLE7=Pulsedriver - Koma (Reloaded) (Extended Mix) [140]
TTITLE8=Linkin Park - Shadow Of The Day [110]
TTITLE9=Eric Lévi - Ameno [98]
TTITLE10=Bodyrockers - I Like The Way [129]
TTITLE11=Klaus Badelt - He's A Pirate (Tiesto Orchestral Remix) [140]
TTITLE12=Will Young - Leave Right Now [82]
TTITLE13=Timbaland Feat. One Republic - Apologize [59]
TTITLE14=Enya - A Moment Lost [0]
EXTD=
EXTT0=
EXTT1=
EXTT2=
EXTT3=
EXTT4=
EXTT5=
EXTT6=
EXTT7=
EXTT8=
EXTT9=
EXTT10=
EXTT11=
EXTT12=
EXTT13=
EXTT14=
PLAYORDER=
